<svg xmlns="http://www.w3.org/2000/svg" viewBox="0 0 1477 1518.56"><defs><style>.cls-1{fill:#333;}.cls-1,.cls-2{fill-rule:evenodd;}.cls-2{fill:#748a1e;}.cls-3{fill:#414042;}</style></defs><title>Recurso 1</title><g id="Capa_2" data-name="Capa 2"><g id="Layer_2" data-name="Layer 2"><path class="cls-1" d="M1104.17,1472.75c135,0,260.5,2.39,362.08,4.79-101.58,2.39-227,4.78-362.08,4.78Zm-731.33,0c-136.23,0-261.71,2.39-363.28,4.79,101.57,2.39,227.05,4.78,363.28,4.78Z"/><path class="cls-1" d="M858,150.87c-2.39,2.4-2.39,1.2-3.58,4.79-8.37,29.89-13.15,58.58-11.95,89.67s8.36,64.56,15.53,93.25c26.29,114.78-50.19,190.1-112.33,279.76a105.73,105.73,0,0,0-7.17,12c-2.39-4.78-6-8.37-8.36-12-60.95-89.66-137.43-165-111.14-279.76,7.17-28.69,14.34-62.17,15.54-93.25s-3.59-59.78-13.15-89.67c-1.19-3.59,0-2.39-3.58-4.79-6,1.2-2.39,13.16-2.39,19.13,4.78,35.87,6,74.13-3.59,108.8-3.58,9.57-9.56,29.89-15.53,34.67-8.37-3.58-19.12-15.54-27.49-22.71-11.95-10.76-28.68-31.09-38.24-45.43C515,223.8,492.33,176,488.75,150.87h0c-1.2,16.74,6,49,10.75,64.57,7.17,23.91,21.51,57.38,35.85,76.51,19.12,26.31,37,34.67,46.61,68.15,4.78,43-3.59,62.17,13.14,114.78,11.95,34.67,15.54,44.23,37,72.93,9.56,12,1.19,8.36,1.19,8.36-53.77-46.62-99.18-51.41-147-84.88C425.42,429.44,374,369.66,341.77,303.91c-3.59-6-6-16.74-13.15-16.74-4.78,7.17,1.2,16.74,6,26.3,46.6,98,78.87,138.69,155.34,193.69C517.43,527.48,540.13,539.44,570,555c9.56,4.78,41.82,21.52,43,29.89-6,4.78-22.71,1.19-31.07,1.19-12-1.19-23.9-1.19-35.85-1.19-44.22,1.19-89.63,17.93-127.86,14.35-10.76,0-21.51-2.4-31.07-4.79-7.17-1.19-22.71-8.37-27.49-7.17-1.19,6,2.39,6,7.17,8.37,58.56,25.11,99.18,22.71,136.23,17.93,119.5-14.34,215.1,23.91,192.39,171-14.34-46.63-184-52.61-224.66-71.74-20.31-10.76-33.45-17.93-51.38-31.08-10.75-8.37-10.75-10.76-17.92-8.37-1.2,7.17,2.39,8.37,6,12,19.12,22.71,51.38,46.62,80.06,58.58,81.26,37.06,141,10.76,188.81,112.38,10.76,25.11,15.54,104-6,123.15,0,0-39.44-33.48-50.19-41.85-44.22-33.47-72.9-44.23-127.87-57.38-25.09-6-49-12-75.28-16.74-51.38-10.76-88.43-26.31-129.06-56.19-25.09-17.94-49-46.63-64.53-72.93-2.39-4.79-15.53-28.7-16.73-29.89-7.17,0-3.58,6-2.39,12,11.95,33.48,28.68,64.56,51.39,92.06,19.12,22.72,63.33,61,92,70.54-3.58,3.59-19.12,9.56-23.9,10.76-47.8,17.93-95.6,29.89-147,25.11-9.56,0-43-4.79-51.39-8.37-4.78-2.39-3.58-3.59-6-1.2-1.2,1.2,0,4.78,1.19,4.78,9.56,6,43,14.35,53.78,16.74,21.51,4.79,41.82,6,65.72,6,77.68,0,136.23-51.41,249.75-7.17,37.05,14.34,64.53,33.47,90.82,53.8,65.73,51.41,96.8,125.53,99.19,206.83a481.92,481.92,0,0,1-3.59,58.59c-7.17,51.41-22.7,131.51-88.43,121.94-3.58,0-8.36-1.19-25.09,3.59-14.34,3.59-32.27,6-49,7.17-72.89,6-51.38-12-111.13,9.57a60.23,60.23,0,0,1-19.12,6h730.14a112.08,112.08,0,0,0-15.54-4.79c-41.82-10.76-38.24-10.76-80.06-9.56-19.12,1.2-69.31-4.78-90.82-6-58.55-4.78-92-15.54-104-32.28-1.2,3.59-3.59,14.35-8.37,22.72,1.2-19.13,2.39-32.28,0-47.83-2.39-28.69-13.14-53.8-16.73-87.27-9.56-95.65,20.32-187.71,98-248.68,25.09-20.33,53.77-39.46,89.62-53.8,113.53-44.24,173.28,7.17,250.95,7.17,22.71,0,44.22-1.19,65.73-6,10.75-2.39,43-10.76,53.77-16.74a27.08,27.08,0,0,0,1.19-4.78c-2.39-2.39-1.19-1.19-6,1.2-9.56,3.58-43,8.37-51.38,8.37-51.39,4.78-100.38-7.18-147-25.11-4.78-1.2-21.51-7.17-23.9-10.76,28.68-9.56,71.7-47.82,92-70.54,22.7-27.5,39.43-58.58,51.38-92.06,1.2-6,4.78-12-3.58-12-1.2,1.19-13.15,25.1-15.54,29.89-15.53,26.3-40.63,55-64.53,72.93-40.63,29.88-77.67,45.43-129.06,56.19-26.29,4.78-51.38,10.76-75.28,16.74-55,13.15-84.85,23.91-127.86,57.38-11.95,8.37-50.19,41.85-50.19,41.85-21.51-19.13-17.93-98-6-123.15,46.61-101.62,107.55-75.32,188.81-112.38,27.48-12,59.75-35.87,80.06-58.58,3.59-3.59,7.17-4.79,6-12-7.17-2.39-8.37,0-17.93,8.37-17.92,13.15-31.07,20.32-51.38,31.08-40.63,19.13-210.32,25.11-224.66,71.74-22.7-147.06,72.9-185.31,192.39-171,37.05,4.78,76.48,7.18,135-17.93,6-2.39,9.56-2.39,7.17-8.37-3.59-1.2-20.32,6-26.29,7.17-10.76,2.39-20.32,4.79-31.07,4.79-38.24,3.58-83.65-13.16-127.87-14.35-11.95,0-23.9,0-35.85,1.19-8.36,0-26.28,3.59-31.06-1.19,1.19-8.37,33.46-25.11,43-29.89,28.68-15.54,52.58-27.5,78.87-47.82,77.68-55,109.94-95.65,156.55-193.69,4.78-9.56,10.75-19.13,6-26.3-8.36,0-10.75,10.76-13.14,16.74-33.46,65.75-84.85,125.53-144.6,167.38-47.8,33.47-93.2,38.26-147,84.88,0,0-9.56,3.59,1.2-8.36,20.31-28.7,25.09-38.26,35.85-72.93,17.92-52.61,9.56-71.74,13.14-114.78,10.75-33.48,27.48-41.84,46.6-68.15,15.54-19.13,29.88-52.6,37-76.51,4.78-15.55,12-47.83,10.75-64.57h0C984.67,176,962,223.8,946.43,245.33,936.87,259.67,920.14,280,907,290.76c-7.17,7.17-17.92,19.13-27.48,22.71-4.78-4.78-12-25.1-14.34-34.67-9.56-34.67-8.36-72.93-4.78-108.8,1.2-6,4.78-17.93-2.39-19.13ZM396.74,278.8a9.13,9.13,0,0,1,2.39-6c-2.39,2.39-4.78,3.59-6,6Z"/><path class="cls-2" d="M934.48,167.61c-17.93,9.57-51.38,39.46-53.77,52.61,3.58,0,11.94,2.39,15.53,2.39,37-1.2,58.55-25.11,64.53-70.54-51.39-9.56-82.46,7.17-87.23,41.85-1.2,6,0,13.15,0,20.32,17.92-25.11,43-43,60.94-46.63Z"/><path class="cls-2" d="M1051.59,97.07c-16.73,12-45.41,45.44-46.61,57.39,3.59,0,11.95,1.2,15.54,1.2,37-6,55-31.09,55-77.72-52.58-2.39-80.07,17.94-81.26,52.61,0,6,2.39,13.15,3.58,19.13,14.34-26.3,35.85-46.63,53.78-52.61Z"/><path class="cls-2" d="M1069.51,165.22c-9.56,2.39-28.68,12-31.07,17.94,2.39,1.19,6,2.39,7.17,2.39,17.93,4.78,29.88-4.79,38.24-25.11-23.9-9.57-39.43-6-45.41,9.56-1.19,3.59-2.39,7.18-2.39,9.57,10.76-9.57,25.1-15.54,33.46-14.35Z"/><path class="cls-2" d="M1441.15,653c-16.73,4.78-51.38,23.91-56.16,34.67,2.39,1.19,9.56,4.78,12,4.78,33.46,7.17,57.36-8.37,70.5-47.82-43-17.94-72.89-9.57-83.65,19.13-2.39,4.78-3.58,12-3.58,16.73,20.31-16.73,45.41-27.49,60.94-27.49Z"/><path class="cls-2" d="M976.3,803.66c-9.56-9.57-34.65-23.91-43-22.72,0,2.39,1.2,8.37,1.2,10.76q12.54,34.08,57.36,25.11c-6-33.48-22.71-49-44.22-45.43-3.58,1.19-8.36,3.58-12,4.78,17.93,6,34.66,16.74,40.63,27.5Z"/><path class="cls-2" d="M1393.35,717.58c-9.56,2.39-28.68,11.95-31.07,17.93l7.17,3.59c17.93,3.58,29.88-4.78,38.24-26.31-23.9-9.56-39.43-4.78-45.41,10.77a22.22,22.22,0,0,0-2.39,8.36c10.76-9.56,23.9-14.34,33.46-14.34Z"/><path class="cls-2" d="M1419.64,539.44c-16.73,10.76-47.8,43-50.19,56.19,4.78,0,13.15,1.19,15.54,1.19,38.24-3.58,58.55-28.69,59.75-75.32-51.39-4.78-81.26,14.35-83.65,49,0,6,1.19,13.15,2.39,20.33,15.53-26.31,38.24-45.44,56.16-51.41Z"/><path class="cls-2" d="M913,81.53c-13.15,13.15-33.46,49-32.26,61a59.67,59.67,0,0,0,14.33-2.4c33.46-10.76,45.41-38.25,37.05-80.1-47.8,7.17-70.5,29.89-64.53,62.17,0,4.78,3.59,12,6,17.93C881.9,112.62,898.63,89.9,913,81.53Z"/><path class="cls-2" d="M1350.34,396c-15.54,4.78-46.61,21.52-51.39,31.08,3.59,0,9.56,3.59,12,3.59,28.68,7.17,49-7.17,62.14-41.85-38.24-15.54-64.53-8.36-74.09,16.74-2.39,4.78-2.39,10.76-3.58,15.54,17.92-15.54,39.43-25.1,55-25.1Z"/><path class="cls-2" d="M975.11,60c0,16.74-9.56,52.61-17.93,59.78-2.39-2.39-7.17-8.37-8.36-10.76-13.15-28.69-3.59-52.61,28.68-74.13,25.09,34.68,23.9,63.37,1.19,80.11-4.78,2.39-10.75,4.78-15.53,7.17,12-22.72,15.53-46.63,12-62.17Z"/><path class="cls-2" d="M1276.25,361.3c-13.15,13.15-33.46,49-32.27,59.77,3.59,0,10.76-1.19,14.34-1.19q48.4-17.94,35.85-78.91c-46.6,6-68.11,28.69-63.33,59.78,1.19,6,3.58,12,6,17.93,8.37-26.3,25.1-49,39.44-57.38Z"/><path class="cls-2" d="M1054,773.77c-16.73-3.59-52.58-2.39-61,4.78l9.56,9.57c22.71,17.93,49,14.34,75.29-10.76-27.49-32.28-55-37.07-75.29-17.94-3.58,2.39-7.17,7.18-10.75,12,23.9-6,49-4.78,62.14,2.39Z"/><path class="cls-2" d="M1089.83,456.94c-11.95,1.2-34.66,12-38.24,19.13,2.39,0,6,2.39,8.36,3.59,20.32,6,35.85-3.59,46.61-27.5-26.29-13.15-45.41-9.56-53.78,8.37q-1.79,5.39-3.58,10.76c14.34-10.76,29.87-15.54,40.63-14.35Z"/><path class="cls-2" d="M1276.25,455.75c-23.9,8.37-69.31,39.45-75.29,53.8,4.78,1.19,14.34,6,19.12,6,46.61,6,76.48-19.13,92-75.33-62.14-19.13-102.77-4.78-114.72,37.07-2.39,7.17-2.39,16.73-3.59,25.1,26.29-27.49,59.75-45.43,82.46-46.62Z"/><path class="cls-2" d="M1205.74,392.38c1.2,13.15-2.39,39.45-8.36,45.43-1.2-2.39-6-6-7.17-7.17-12-20.33-6-38.26,15.53-56.19,21.51,23.91,22.71,44.23,7.17,58.58-3.58,2.39-7.17,3.59-10.75,6,7.17-17.94,8.36-35.87,3.58-46.63Z"/><path class="cls-2" d="M1306.12,289.56c-16.73,3.59-50.19,20.33-55,29.89a126.08,126.08,0,0,1,11.95,4.78c29.88,8.37,52.58-6,66.92-41.84-39.43-17.94-66.92-12-78.87,14.34-1.19,4.79-2.39,10.76-3.58,16.74,19.12-15.54,43-25.1,58.55-23.91Z"/><path class="cls-2" d="M1212.91,336.19c-20.31,0-63.33,9.56-70.5,20.32,2.39,1.2,8.36,7.18,11.95,8.37,32.26,17.94,62.14,7.18,88.43-29.89-40.63-31.08-74.09-31.08-94.41-4.78-3.58,4.78-7.17,12-9.56,17.93,27.49-13.15,56.17-16.73,74.09-11.95Z"/><path class="cls-2" d="M1099.39,251.3c8.36,14.35,17.92,49,14.34,58.59a123.31,123.31,0,0,1-12-4.79c-25.1-16.73-29.88-43-13.15-76.51,39.44,17.93,52.58,41.84,40.63,67-2.39,4.78-6,9.56-8.36,13.15-2.39-23.91-10.76-46.63-21.51-57.39Z"/><path class="cls-2" d="M960.77,349.34c-11.95-1.2-39.44,1.2-44.22,6,1.2,1.19,4.78,4.78,6,7.17,19.12,13.15,37,9.57,57.36-10.76-22.71-22.71-43-26.3-57.36-12-2.39,2.39-6,7.17-7.17,10.76,16.73-6,35.85-6,45.41-1.2Z"/><path class="cls-2" d="M1193.79,164c3.59,11.95,3.59,40.65-1.19,47.82-2.39-2.39-7.17-4.78-8.37-7.17-15.53-17.94-14.34-38.26,6-61,26.29,21.52,31.07,43,16.73,59.78-2.39,3.59-6,6-9.56,8.37,4.78-19.13,2.39-38.26-3.59-47.82Z"/><path class="cls-2" d="M1140,183.16c6,19.12,7.17,62.17,0,72.93-2.39-2.4-9.56-7.18-12-9.57-25.1-26.3-22.71-57.39,6-92.06,40.63,29.89,49,62.17,28.68,88.47-3.58,4.79-9.56,9.57-14.34,13.16,6-28.7,1.2-57.39-8.36-72.93Z"/><path class="cls-2" d="M1068.32,318.26c9.56,2.39,27.48,13.15,31.07,19.12-2.39,0-6,2.4-7.17,2.4-17.93,3.58-31.07-4.79-38.24-26.31,22.7-9.56,39.43-4.78,45.41,10.76,1.19,2.39,1.19,6,2.39,9.57-12-9.57-25.1-15.54-33.46-15.54Z"/><path class="cls-2" d="M1240.4,246.52c-23.9,6-71.7,32.28-77.68,46.63,4.78,1.19,13.15,6,17.93,7.17,44.21,8.37,75.28-13.15,94.4-65.75-58.55-23.92-98-12-113.52,26.3-2.39,6-3.59,15.54-4.78,23.91,27.48-23.91,60.94-38.26,83.65-38.26Z"/><path class="cls-2" d="M1027.69,281.19c-19.12,6-55,25.11-59.75,35.87a140.59,140.59,0,0,0,13.14,6c34.66,7.17,58.56-9.57,74.09-50.22-45.41-19.13-76.48-9.56-88.43,20.33-2.39,4.78-3.58,12-3.58,17.93,21.51-19.13,46.6-29.89,64.53-29.89Z"/><path class="cls-2" d="M806.62,80.34c13.14,14.34,33.46,51.41,32.26,63.36a69.61,69.61,0,0,1-15.53-2.39c-33.46-12-45.41-40.65-35.85-83.69,49,9.56,71.7,33.48,65.72,65.76-1.19,4.78-4.78,12-7.17,17.93-8.36-27.5-23.9-51.41-39.43-61Z"/><path class="cls-2" d="M1065.93,214.24c-17.93,4.78-53.78,25.11-58.56,35.87,3.59,0,9.56,3.58,13.15,4.78,33.46,7.17,57.36-9.56,71.7-49-44.22-17.93-74.09-9.56-86,19.13-1.2,4.78-2.39,12-3.59,17.93,21.51-17.93,46.61-28.69,63.34-28.69Z"/><path class="cls-2" d="M1284.61,875.39c-13.14,6-35.85,22.72-37,31.09a28.24,28.24,0,0,0,9.56,2.39c23.9,1.19,39.43-12,44.21-41.85-32.26-8.36-52.58,1.2-57.36,22.72-1.19,3.59-1.19,8.37-1.19,13.15,13.14-15.54,29.87-25.11,41.82-27.5Z"/><path class="cls-2" d="M1157.94,443.79c-3.58,21.52-21.51,65.76-33.46,72.93-1.19-3.59-6-12-7.17-15.54-13.14-38.26,2.39-68.15,47.8-90.87,27.49,50.22,21.51,86.09-11.95,104-6,2.39-13.14,4.78-20.31,7.17,19.12-27.5,27.48-58.58,25.09-77.71Z"/><path class="cls-2" d="M1199.77,543c-21.51,6-64.53,29.89-70.51,43,3.59,1.2,12,4.79,15.54,6,40.63,8.37,70.5-10.76,87.23-59.78-52.58-21.52-89.62-12-104,23.91-2.39,6-3.59,14.35-4.78,21.52,25.09-21.52,56.16-34.67,76.48-34.67Z"/><path class="cls-2" d="M1086.24,522.7c-1.19,17.93-15.53,55-25.09,61-1.2-3.58-6-8.37-7.17-11.95-12-31.09,1.19-57.39,37-76.52,23.9,39.45,20.32,70.54-6,86.08a69.39,69.39,0,0,1-16.73,6c14.34-22.72,21.51-49,17.92-64.56Z"/><path class="cls-2" d="M757.62,149.68c20.32,13.15,57.36,52.6,59.75,68.15-4.78,0-14.34,1.19-19.12,1.19-44.21-4.78-68.11-34.67-70.5-90.86,62.14-4.78,96.79,17.93,100.38,58.58a162.63,162.63,0,0,1-2.39,23.91c-19.12-31.08-46.61-55-68.12-61Z"/><path class="cls-2" d="M1152,387.6c-10.76,0-34.66,4.78-39.44,9.56,2.39,1.2,4.78,4.79,7.17,4.79,16.73,10.76,33.46,6,47.8-14.35-21.51-17.94-39.43-17.94-51.38-3.59-1.2,2.39-3.59,6-4.78,8.37,15.53-6,31.07-7.17,40.63-4.78Z"/><path class="cls-2" d="M1122.09,716.38c-19.12,2.39-57.36,15.54-63.33,25.11,3.58,2.39,9.56,7.17,12,7.17,32.26,13.15,58.55,0,78.87-37.06-40.63-23.91-71.7-20.33-88.43,6a79.15,79.15,0,0,0-6,17.93c23.9-15.54,50.19-21.52,66.92-19.13Z"/><path class="cls-2" d="M1157.94,645.84c-20.31,2.39-60.94,16.74-68.11,27.5,3.58,2.39,10.75,7.17,13.14,8.37,34.66,13.15,62.14,0,84.85-40.65-44.22-26.3-77.68-22.72-94.41,7.17-2.39,4.79-4.78,12-7.17,17.94,25.1-15.54,53.78-22.72,71.7-20.33Z"/><path class="cls-2" d="M917.75,645.84c-12-2.39-39.44-1.19-46.6,3.59,2.39,1.2,4.78,6,7.16,7.17,17.93,14.35,37.05,12,58.56-8.37-21.51-23.91-43-27.49-58.56-13.15a66.87,66.87,0,0,0-7.16,9.57c17.92-4.79,35.84-4.79,46.6,1.19Z"/><path class="cls-2" d="M988.25,660.19c-7.17,16.74-31.07,47.82-41.82,51.41-1.2-3.59-3.59-10.76-3.59-14.35-2.39-33.47,16.73-53.8,57.36-62.17,11.95,45.43-1.19,72.93-31.07,80.11-4.78,1.19-12,1.19-17.92,1.19,20.31-17.93,34.65-40.65,37-56.19Z"/><path class="cls-2" d="M1055.17,636.28c-6,12-22.7,34.67-29.87,37.06,0-2.39-2.39-8.37-2.39-9.56-1.2-23.92,11.95-38.26,40.63-44.24,7.17,31.09-1.2,51.41-21.51,56.19-3.59,1.2-8.37,1.2-13.15,1.2,14.34-13.15,23.9-28.7,26.29-40.65Z"/><path class="cls-2" d="M1134,783.33c-6,13.16-25.09,39.46-34.65,41.85,0-2.39-2.39-8.37-2.39-10.76-2.39-27.5,14.34-45.43,47.8-51.41,9.56,37.06-1.2,59.78-26.29,65.76-3.59,1.19-9.56,1.19-14.34,1.19,16.73-14.35,28.68-33.47,29.87-46.63Z"/><path class="cls-2" d="M1193.79,728.34c-2.39,17.93-16.73,56.19-26.29,62.17-1.19-2.39-6-8.37-7.17-12-11.95-31.08,0-57.39,37.05-77.71,25.09,40.65,21.51,71.73-6,87.28-4.78,2.39-10.75,4.78-16.73,7.17,14.34-23.91,21.51-50.21,19.12-66.95Z"/><path class="cls-2" d="M1228.45,675.73c3.58,12,3.58,40.65-1.2,46.63-1.19-1.2-6-4.78-7.17-6-15.53-17.93-14.34-37.06,4.78-59.78,25.1,20.33,31.07,41.85,16.73,58.59-2.39,2.39-6,4.78-9.56,8.37,4.78-19.13,2.39-38.26-3.58-47.83Z"/><path class="cls-2" d="M1283.42,627.91c0,17.93-9.56,55-17.93,63.36-1.19-3.58-7.17-8.36-8.36-11.95-15.54-28.69-6-55,27.48-78.91,27.49,35.87,27.49,67,3.59,84.89-3.59,3.58-9.56,6-15.54,8.37,11.95-23.92,15.54-50.22,10.76-65.76Z"/><path class="cls-2" d="M1242.79,595.63c-13.15,9.56-34.66,33.47-35.85,43,2.39,0,8.36,1.19,12,1.19,27.48-3.58,41.82-22.71,41.82-57.38-39.43-2.39-59.75,11.95-60.94,38.26,0,4.78,1.19,9.56,1.19,14.34,12-19.13,28.68-34.67,41.83-39.45Z"/><path class="cls-2" d="M1284.61,819.2c-15.53-2.39-50.19,0-57.36,6,2.39,2.39,6,7.17,8.37,9.56,22.7,16.74,46.6,12,71.7-13.15-27.49-29.89-53.78-33.47-72.9-15.54-3.58,3.59-6,8.37-8.36,13.15,21.51-7.17,45.41-6,58.55,0Z"/><path class="cls-2" d="M1327.63,757c-16.73-1.19-53.77,3.59-60.94,10.76,2.39,2.39,7.17,7.17,9.56,8.37,26.29,17.93,51.38,12,77.67-17.93-32.26-29.89-60.94-32.28-80.06-12-3.59,3.59-7.17,9.57-9.56,14.35,23.9-8.37,49-9.57,63.33-3.59Z"/><path class="cls-2" d="M1339.58,694.86c-13.14,2.39-43,14.35-47.8,21.52,2.39,1.2,7.17,4.78,9.56,6,25.1,8.37,45.41-2.39,59.75-31.09-32.27-17.93-56.16-15.54-68.11,7.18-1.2,2.39-2.39,8.37-4.78,13.15,17.92-12,39.43-17.93,51.38-16.74Z"/><path class="cls-2" d="M1371.84,624.32c-17.92,7.18-50.18,32.28-53.77,44.24,3.59,0,10.75,2.39,14.34,2.39,34.65,2.39,56.16-17.93,64.53-59.78-46.6-10.76-76.48,1.2-83.65,33.48-1.19,4.78-1.19,12-1.19,17.93,19.12-21.52,41.82-35.87,59.74-38.26Z"/><path class="cls-2" d="M1333.61,541.83c-9.56,16.74-22.71,55-19.12,66.95,2.39-2.39,10.75-3.59,13.14-6,29.87-16.74,37-45.43,20.31-84.88-45.4,15.54-62.13,43-51.38,72.93a109.6,109.6,0,0,0,9.56,15.54c3.59-27.5,14.34-52.61,27.49-64.56Z"/><path class="cls-2" d="M1273.86,533.46c-1.2,11.95-9.56,34.67-15.54,38.26-1.19-2.39-3.58-6-3.58-7.18-8.37-19.13,0-34.67,21.51-47.82,15.53,25.11,13.14,44.24-3.59,53.8a81.92,81.92,0,0,1-9.56,3.59c8.37-14.35,13.15-29.89,10.76-40.65Z"/><path class="cls-2" d="M1347.94,468.9c-11.94,8.37-34.65,31.08-35.84,39.45,3.58,0,8.36,1.2,12,1.2,26.29-2.39,40.62-20.33,41.82-52.61-37-3.58-57.36,9.57-59.75,33.48,0,4.78,0,9.56,1.2,14.34,12-17.93,27.48-32.28,40.62-35.86Z"/><path class="cls-2" d="M1221.28,857.46c-9.56-1.2-31.07,0-35.85,3.59,1.19,1.19,3.58,4.78,4.78,6,15.53,10.76,29.87,8.37,45.41-8.36-16.73-17.94-33.46-20.33-45.41-9.57-2.39,2.39-3.59,6-6,8.37,14.34-4.78,28.68-3.59,37,0Z"/><path class="cls-2" d="M1352.72,865.83c-13.14,4.78-39.43,21.52-41.82,31.08,2.39,0,7.17,2.39,9.56,2.39,26.29,3.59,44.21-10.76,52.58-41.84-35.85-10.76-57.36-2.39-64.53,20.32-1.19,3.59-1.19,9.57-2.39,14.35,15.54-15.54,33.46-25.11,46.6-26.3Z"/><path class="cls-2" d="M1242.79,985.39c-7.17-12-28.68-34.68-38.24-35.87,0,2.39-1.2,8.37-1.2,10.76,2.39,26.3,19.12,40.65,52.58,43,3.59-37.06-9.56-57.39-33.46-59.78-3.58,0-9.56,1.2-13.14,1.2,16.73,12,31.07,27.49,33.46,40.65Z"/><path class="cls-2" d="M1289.39,969.84c-4.78-8.37-20.31-22.71-26.29-23.91,0,1.2-1.19,6-1.19,7.18q1.78,26.89,35.85,28.69c2.39-23.91-6-38.26-22.71-39.45-2.39-1.2-6,0-9.56,0,12,8.36,21.51,19.12,23.9,27.49Z"/><path class="cls-2" d="M1347.94,973.43c-7.16-12-28.67-33.48-37-34.67,0,2.39-1.19,8.37-1.19,10.76,2.39,25.11,19.11,39.45,50.18,41.84,4.78-35.86-8.36-56.19-32.26-58.58a53.36,53.36,0,0,0-13.14,1.2c17.92,10.76,31.06,27.49,33.45,39.45Z"/><path class="cls-2" d="M1402.91,937.56c-10.75-6-35.85-11.95-43-9.56,1.2,2.39,2.39,7.17,3.59,8.37,13.14,19.13,31.07,21.52,56.16,8.37-13.14-27.5-31.07-37.07-50.19-28.7-2.39,1.2-6,4.78-9.56,7.18,17.93,0,35.85,6,43,14.34Z"/><path class="cls-2" d="M1432.79,870.61c-16.73,1.2-51.39,13.15-57.36,21.52,3.58,2.39,8.36,6,10.75,7.17,28.68,10.76,52.58,0,70.51-32.28-35.85-22.71-63.34-20.32-77.68,3.59a82.65,82.65,0,0,0-6,15.54c20.31-13.15,44.21-17.93,59.75-15.54Z"/><path class="cls-2" d="M1357.5,801.27c-12,1.19-35.84,9.56-39.43,15.54,2.39,1.2,6,3.59,7.17,3.59,20.31,8.37,35.85,1.19,49-21.52-25.09-15.55-44.21-14.35-53.77,2.39a42.5,42.5,0,0,0-4.78,10.76c14.34-8.37,31.07-13.15,41.82-10.76Z"/><path class="cls-2" d="M1393.35,816.81c-9.56,6-26.29,23.91-27.48,31.08,2.39,0,6,1.2,8.36,1.2,21.51-2.39,32.27-15.54,33.46-41.84-28.68-2.4-45.41,7.17-46.6,27.49,0,2.39,0,7.18,1.19,10.76,8.37-14.34,21.51-25.1,31.07-28.69Z"/><path class="cls-2" d="M1442.35,758.23c-20.32,1.19-60.95,15.54-68.12,25.1,3.59,2.4,9.56,7.18,13.15,8.37,33.46,14.35,62.14,1.2,84.84-37.06-43-27.5-76.48-25.11-94.4,3.59-2.39,4.78-4.78,11.95-7.17,17.93,25.09-15.54,53.77-21.52,71.7-17.93Z"/><path class="cls-2" d="M1451.91,812c-12,4.78-32.27,21.52-34.66,28.69a28,28,0,0,0,9.56,2.39c22.71,1.2,35.85-12,40.63-40.65-29.87-6-49,2.39-53.77,22.72v12c11.95-14.34,26.29-23.91,38.24-25.1Z"/><path class="cls-2" d="M1178.26,975.82c-2.39-12-12-33.47-17.93-37.06-1.19,2.39-3.58,6-4.78,8.37-4.78,19.13,3.59,34.67,27.49,44.23,12-25.1,8.36-44.23-8.37-51.41-3.58-2.39-7.17-2.39-10.75-3.58,9.56,13.15,15.53,28.69,14.34,39.45Z"/><path class="cls-2" d="M1124.48,957.89c-2.39-9.57-10.75-28.7-16.73-31.09,0,1.2-2.39,4.79-2.39,6-4.78,17.93,2.39,29.89,22.71,39.45,10.75-22.71,7.17-38.25-7.17-45.43a22.61,22.61,0,0,0-9.56-2.39c9.56,10.76,13.14,25.11,13.14,33.48Z"/><path class="cls-2" d="M773.16,306.3c21.51,12,60.94,50.21,63.33,65.76-4.78,0-14.34,2.39-19.12,1.19-45.41-2.39-70.5-31.08-75.28-87.28,63.33-8.36,99.18,13.16,104,55,1.2,7.17,0,15.54-1.19,23.91-20.32-31.08-49-53.8-71.7-58.58Z"/><path class="cls-2" d="M786.3,241.74c12,6,33.46,26.3,34.66,35.87-2.39,0-7.17,1.19-9.56,1.19-25.1-2.39-39.44-17.93-41.83-49,34.66-4.78,55,7.18,57.36,29.89,0,4.78,0,9.57-1.19,14.35-10.76-17.93-27.49-29.89-39.44-32.28Z"/><path class="cls-2" d="M801.84,397.16c11.95,7.18,34.65,28.7,35.85,37.07-2.39,0-8.37,1.19-10.76,1.19-25.09-1.19-39.43-17.93-41.82-49,34.65-4.78,55,7.18,57.36,31.09,1.19,3.58,0,8.37,0,13.15-12-17.93-27.49-29.89-40.63-33.48Z"/><path class="cls-2" d="M768.38,17c13.14,7.17,37,26.3,39.43,35.87-2.39,0-8.36,2.39-10.75,2.39-27.49,0-43-15.54-47.8-49C785.11-1,807.81,9.8,812.59,34.9V48.06C798.25,31.32,781.52,19.36,768.38,17Z"/><path class="cls-2" d="M905.8,248.91c-9.56,0-29.87,8.37-33.46,13.15,1.2,1.2,4.78,3.59,6,3.59,17.93,7.17,31.07,0,41.83-19.13-21.51-13.15-38.24-12-46.6,2.39a82.14,82.14,0,0,0-3.59,9.57c13.15-8.37,27.49-12,35.85-9.57Z"/><path class="cls-2" d="M966.74,403.14c-17.92,4.78-55,25.11-59.75,35.87,3.59,1.19,10.76,4.78,13.15,4.78,34.65,7.17,59.75-8.37,74.09-50.21-45.41-17.94-76.48-9.57-88.43,20.32-1.2,4.78-2.39,12-3.59,17.93,21.51-17.93,46.61-28.69,64.53-28.69Z"/><path class="cls-2" d="M1039.64,344.56c4.78,14.34,7.17,46.63,2.39,53.8-2.39-1.2-7.17-4.78-9.56-6-19.12-19.13-17.93-41.84,2.39-69.34,31.07,21.52,38.24,45.43,23.9,65.75-2.39,3.59-7.17,7.18-10.76,10.76,3.59-22.71,0-43-8.36-55Z"/><path class="cls-2" d="M1020.52,557.37c-10.76-9.56-39.44-22.72-49-20.32,1.2,2.39,2.39,8.36,3.59,9.56,10.75,25.11,32.26,32.28,63.33,22.72-8.36-35.87-27.48-51.41-51.38-44.24a44.4,44.4,0,0,0-13.15,6c21.51,4.78,39.44,15.54,46.61,26.3Z"/><path class="cls-2" d="M1411.28,478.46c-10.76,7.18-31.07,27.5-31.07,35.87,2.39,0,7.17,1.2,9.56,0,23.9-1.2,35.85-17.93,38.24-46.63-33.46-3.58-52.58,8.37-53.78,29.89a53.39,53.39,0,0,0,1.2,13.15c9.56-16.74,25.09-28.69,35.85-32.28Z"/><path class="cls-2" d="M1350.34,341c-14.34,3.59-40.63,17.93-44.22,25.11,2.39,1.19,8.37,3.58,10.76,4.78,23.9,4.78,41.82-7.17,52.57-37.06-32.26-13.15-55-7.18-63.33,15.54a43.17,43.17,0,0,0-2.39,13.15c15.54-14.35,33.46-21.52,46.61-21.52Z"/><path class="cls-2" d="M1399.33,416.29c-8.37,7.18-22.71,27.5-22.71,35.87,2.39-1.2,7.17-1.2,8.37-1.2,20.31-4.78,29.87-20.32,27.48-46.62-29.87,1.19-44.21,14.34-43,33.47a42.7,42.7,0,0,0,2.39,12c7.17-16.74,17.93-28.7,27.49-33.48Z"/><path class="cls-2" d="M1450.71,590.85c-9.56,6-27.48,23.91-28.68,29.89,2.39,1.19,7.17,1.19,8.37,1.19,21.51-1.19,32.26-14.35,34.65-39.45-28.68-3.59-45.41,6-46.6,25.1-1.2,2.4,0,7.18,0,10.76,9.56-14.34,22.7-23.91,32.26-27.49Z"/><path class="cls-2" d="M1460.27,706.82c-12,2.39-33.46,11.95-37,17.93,1.19,1.2,6,3.59,7.17,3.59,20.31,6,34.65-2.39,46.6-25.11-26.29-13.15-44.21-9.56-53.77,7.17a28.06,28.06,0,0,0-2.39,9.57c13.14-9.57,28.68-14.35,39.43-13.15Z"/><path class="cls-2" d="M1104.17,119.79c-3.59,12-6,37.06-1.2,44.24,1.2-1.2,6-3.59,7.17-6,15.54-15.54,14.34-33.48-2.39-55-23.9,16.74-29.87,35.87-19.12,52.61L1097,164c-2.39-17.94,1.19-34.68,7.17-44.24Z"/><path class="cls-2" d="M853.22,23c4.78,15.54,7.17,50.21,2.39,59.78-2.39-2.39-8.36-6-10.75-7.18C824.54,54,825.74,28.93,847.25.23c34.65,23.91,41.82,49,26.29,71.74-2.39,3.58-7.17,7.17-11.95,10.76,3.58-23.91,0-46.63-8.37-59.78Z"/><path class="cls-2" d="M924.92,31.32c-9.56,2.39-27.48,12-31.07,17.93,2.39,1.2,6,2.39,7.17,2.39,17.92,4.78,31.07-4.78,38.24-25.11-22.71-9.56-39.44-6-45.41,9.57-1.2,3.59-1.2,7.17-2.39,9.56,11.95-9.56,25.09-15.54,33.46-14.34Z"/><path class="cls-2" d="M542.52,167.61c17.93,9.57,51.39,39.46,53.78,52.61-3.59,0-11.95,2.39-15.54,2.39-38.24-1.2-59.75-25.11-64.53-70.54,51.39-9.56,81.26,7.17,87.24,41.85a122.48,122.48,0,0,1-1.2,20.32c-17.92-25.11-41.82-43-59.75-46.63Z"/><path class="cls-2" d="M425.42,97.07c16.72,12,45.4,45.44,46.6,57.39-3.59,0-11.95,1.2-15.54,1.2-37-6-56.16-31.09-55-77.72,51.38-2.39,80.06,17.94,80.06,52.61,0,6-1.2,13.15-2.39,19.13-14.34-26.3-37.05-46.63-53.77-52.61Z"/><path class="cls-2" d="M407.49,165.22c9.56,2.39,27.49,12,31.07,17.94-2.39,1.19-6,2.39-7.17,2.39-17.92,4.78-31.07-4.79-38.24-25.11,22.71-9.57,39.44-6,45.41,9.56,1.2,3.59,1.2,7.18,2.39,9.57C429,170,415.86,164,407.49,165.22Z"/><path class="cls-2" d="M34.65,653C52.58,657.8,87.23,676.93,92,687.69c-3.58,1.19-9.56,4.78-13.14,4.78C46.6,699.64,22.7,684.1,8.36,644.65c43-17.94,72.9-9.57,84.85,19.13,1.19,4.78,2.39,12,3.58,16.73C76.48,663.78,51.38,653,34.65,653Z"/><path class="cls-2" d="M500.7,803.66c9.56-9.57,34.65-23.91,43-22.72-1.2,2.39-1.2,8.37-2.39,10.76C533,814.42,515,822.79,485.16,816.81c6-33.48,21.51-49,44.22-45.43,3.58,1.19,8.36,3.58,12,4.78-19.12,6-34.66,16.74-40.63,27.5Z"/><path class="cls-2" d="M83.65,717.58c9.56,2.39,27.48,11.95,31.07,17.93-2.39,1.2-6,2.39-7.17,3.59-17.93,3.58-31.07-4.78-38.24-26.31,22.7-9.56,39.43-4.78,45.41,10.77,1.19,2.39,1.19,6,2.39,8.36-12-9.56-25.1-14.34-33.46-14.34Z"/><path class="cls-2" d="M56.16,539.44c17.93,10.76,49,43,50.19,56.19-3.58,0-11.95,1.19-15.53,1.19-37-3.58-57.36-28.69-59.75-75.32,52.58-4.78,81.26,14.35,84.84,49,0,6-1.19,13.15-2.39,20.33C98,564.54,74.09,545.41,56.16,539.44Z"/><path class="cls-2" d="M562.84,81.53c13.14,13.15,34.65,49,33.46,61-3.59,0-11.95-1.2-14.34-2.4-33.46-10.76-45.41-38.25-37.05-80.1,47.8,7.17,70.51,29.89,64.53,62.17a155.68,155.68,0,0,1-6,17.93c-8.37-27.49-25.1-50.21-40.63-58.58Z"/><path class="cls-2" d="M126.67,396c15.53,4.78,46.6,21.52,50.19,31.08-2.39,0-8.37,3.59-10.76,3.59-28.68,7.17-50.19-7.17-62.14-41.85,38.24-15.54,63.34-8.36,74.09,16.74,1.2,4.78,2.39,10.76,3.59,15.54-19.12-15.54-40.63-25.1-55-25.1Z"/><path class="cls-2" d="M501.89,60c0,16.74,9.56,52.61,17.93,59.78,2.39-2.39,6-8.37,7.17-10.76,14.34-28.69,4.78-52.61-27.49-74.13-25.09,34.68-25.09,63.37-1.19,80.11,3.58,2.39,9.56,4.78,15.53,7.17-12-22.72-16.73-46.63-12-62.17Z"/><path class="cls-2" d="M200.76,361.3c13.14,13.15,33.46,49,32.26,59.77-3.58,0-10.75-1.19-14.34-1.19-32.26-12-44.21-38.26-37-78.91,47.8,6,69.31,28.69,64.53,59.78-1.2,6-3.59,12-6,17.93-8.36-26.3-25.09-49-39.43-57.38Z"/><path class="cls-2" d="M423,773.77c16.73-3.59,51.38-2.39,59.74,4.78-2.39,2.39-6,7.18-8.36,9.57-23.9,17.93-49,14.34-76.48-10.76,28.68-32.28,56.16-37.07,76.48-17.94,3.58,2.39,7.17,7.18,9.56,12-23.9-6-47.8-4.78-60.94,2.39Z"/><path class="cls-2" d="M387.18,456.94c10.75,1.2,33.46,12,37,19.13-1.19,0-6,2.39-7.17,3.59-20.31,6-35.85-3.59-46.6-27.5,26.29-13.15,45.41-9.56,53.77,8.37,1.2,3.59,2.39,7.17,2.39,10.76-13.14-10.76-28.68-15.54-39.43-14.35Z"/><path class="cls-2" d="M199.56,455.75c23.9,8.37,70.51,39.45,76.48,53.8-4.78,1.19-14.34,6-19.12,6-46.6,6-77.67-19.13-92-75.33,62.14-19.13,101.57-4.78,114.72,37.07C282,484.44,282,494,282,502.37c-26.29-27.49-58.56-45.43-82.46-46.62Z"/><path class="cls-2" d="M270.07,392.38c0,13.15,3.58,39.45,9.56,45.43,1.19-2.39,4.78-6,6-7.17,11.95-20.33,7.17-38.26-14.34-56.19-21.51,23.91-22.7,44.23-7.17,58.58,2.39,2.39,7.17,3.59,10.76,6-7.17-17.94-8.37-35.87-4.78-46.63Z"/><path class="cls-2" d="M170.88,289.56c16.73,3.59,50.19,20.33,55,29.89a127.17,127.17,0,0,0-11.95,4.78c-29.87,8.37-52.58-6-66.92-41.84,38.24-17.94,66.92-12,77.68,14.34,2.39,4.79,3.58,10.76,4.78,16.74-20.32-15.54-43-25.1-58.56-23.91Z"/><path class="cls-2" d="M264.09,336.19c20.32,0,62.14,9.56,70.51,20.32-3.59,1.2-9.56,7.18-12,8.37-33.46,17.94-62.14,7.18-88.43-29.89,39.43-31.08,74.09-31.08,94.4-4.78,3.59,4.78,6,12,9.56,17.93-27.48-13.15-57.36-16.73-74.09-11.95Z"/><path class="cls-2" d="M376.42,251.3c-7.17,14.35-16.73,49-13.14,58.59,2.39-1.2,9.56-3.59,12-4.79,25.09-16.73,28.68-43,11.95-76.51-38.24,17.93-51.39,41.84-39.44,67,1.2,4.78,4.78,9.56,8.37,13.15,1.19-23.91,9.56-46.63,20.31-57.39Z"/><path class="cls-2" d="M516.23,349.34c11.95-1.2,38.24,1.2,44.22,6-1.2,1.19-4.78,4.78-6,7.17q-28.68,19.72-57.36-10.76c21.51-22.71,43-26.3,57.36-12,2.39,2.39,4.78,7.17,7.17,10.76-17.92-6-35.85-6-45.41-1.2Z"/><path class="cls-2" d="M283.21,164c-3.58,11.95-3.58,40.65,1.2,47.82,2.39-2.39,6-4.78,8.36-7.17,15.54-17.94,13.15-38.26-6-61-26.29,21.52-32.27,43-17.93,59.78,2.39,3.59,7.17,6,9.56,8.37-3.58-19.13-1.19-38.26,4.78-47.82Z"/><path class="cls-2" d="M335.79,183.16c-4.78,19.12-7.17,62.17,0,72.93,3.59-2.4,10.76-7.18,11.95-9.57,25.1-26.3,23.9-57.39-4.78-92.06-40.63,29.89-49,62.17-28.68,88.47,2.39,4.79,8.37,9.57,13.15,13.16-4.78-28.7-1.2-57.39,8.36-72.93Z"/><path class="cls-2" d="M408.69,318.26c-9.56,2.39-28.68,13.15-31.07,19.12,2.39,0,6,2.4,7.17,2.4,17.92,3.58,29.87-4.79,38.24-26.31-23.9-9.56-39.44-4.78-45.41,10.76a22.47,22.47,0,0,0-2.39,9.57c10.75-9.57,23.9-15.54,33.46-15.54Z"/><path class="cls-2" d="M236.61,246.52c23.9,6,70.5,32.28,77.67,46.63-4.78,1.19-13.14,6-17.92,7.17-44.22,8.37-76.48-13.15-94.41-65.75,57.36-23.92,98-12,113.53,26.3,2.39,6,3.58,15.54,4.78,23.91-27.49-23.91-60.95-38.26-83.65-38.26Z"/><path class="cls-2" d="M449.32,281.19c17.92,6,55,25.11,59.74,35.87a140.59,140.59,0,0,0-13.14,6c-34.65,7.17-59.75-9.57-74.09-50.22,45.41-19.13,76.48-9.56,88.43,20.33,1.19,4.78,2.39,12,3.58,17.93C492.33,292,466,281.19,449.32,281.19Z"/><path class="cls-2" d="M670.39,80.34c-13.15,14.34-33.46,51.41-32.27,63.36,3.59,0,12-1.19,14.34-2.39,33.46-12,45.41-40.65,35.85-83.69-49,9.56-70.5,33.48-64.53,65.76A70.36,70.36,0,0,0,631,141.31c8.37-27.5,23.9-51.41,39.44-61Z"/><path class="cls-2" d="M411.08,214.24c17.92,4.78,53.77,25.11,58.55,35.87-3.59,0-10.76,3.58-13.15,4.78-33.45,7.17-57.35-9.56-71.69-49,43-17.93,74.08-9.56,84.84,19.13,2.39,4.78,3.58,12,4.78,17.93-21.51-17.93-46.6-28.69-63.33-28.69Z"/><path class="cls-2" d="M192.39,875.39c12,6,34.66,22.72,37.05,31.09a28.24,28.24,0,0,1-9.56,2.39c-23.9,1.19-39.44-12-45.41-41.85,33.46-8.36,53.77,1.2,58.55,22.72,1.2,3.59,0,8.37,0,13.15-12-15.54-28.68-25.11-40.63-27.5Z"/><path class="cls-2" d="M317.87,443.79c3.58,21.52,21.51,65.76,34.65,72.93,1.2-3.59,6-12,7.17-15.54,13.15-38.26-3.58-68.15-47.8-90.87-27.48,50.22-21.51,86.09,11.95,104,4.78,2.39,13.15,4.78,20.32,7.17C325,494,315.48,462.92,317.87,443.79Z"/><path class="cls-2" d="M276,543c22.71,6,65.73,29.89,71.7,43-4.78,1.2-11.95,4.79-16.73,6-40.63,8.37-69.31-10.76-87.23-59.78,53.77-21.52,90.82-12,105.16,23.91,2.39,6,3.58,14.35,4.78,21.52C327.43,556.17,297.55,543,276,543Z"/><path class="cls-2" d="M389.57,522.7c2.39,17.93,15.53,55,25.09,61,2.39-3.58,6-8.37,7.17-11.95,11.95-31.09,0-57.39-35.85-76.52-25.09,39.45-21.51,70.54,6,86.08,3.58,2.39,10.75,4.78,16.73,6-14.34-22.72-21.51-49-19.12-64.56Z"/><path class="cls-2" d="M721.77,440.2c-15.53,17.94-37,62.17-33.46,75.33,3.59-1.2,13.15-2.4,16.73-3.59,38.24-16.74,50.19-49,37.05-99.23-57.36,13.15-81.26,43-71.7,80.1,1.19,6,4.78,13.15,8.36,20.32,8.37-33.47,25.1-61,43-72.93Z"/><path class="cls-2" d="M693.09,161.63c-14.34,9.57-40.63,37.07-41.82,47.83,3.58,0,10.75,1.19,13.14,0,31.07-2.39,47.8-23.91,50.19-62.17-44.21-4.78-68.11,12-70.5,40.65a85.13,85.13,0,0,0,1.19,16.74c13.15-21.52,32.27-38.26,47.8-43.05Z"/><path class="cls-2" d="M325,387.6c10.75,0,34.65,4.78,38.24,9.56-1.2,1.2-4.78,4.79-6,4.79-17.92,10.76-33.46,6-49-14.35,21.51-17.94,40.63-17.94,51.38-3.59,2.39,2.39,3.59,6,6,8.37-15.54-6-31.07-7.17-40.63-4.78Z"/><path class="cls-2" d="M354.91,716.38c19.12,2.39,56.17,15.54,63.34,25.11-3.59,2.39-9.56,7.17-11.95,7.17-32.27,13.15-58.56,0-78.87-37.06,40.63-23.91,71.7-20.33,87.23,6,3.59,4.78,4.78,11.95,7.17,17.93C397.93,720,371.64,714,354.91,716.38Z"/><path class="cls-2" d="M319.06,645.84c19.12,2.39,60.95,16.74,66.92,27.5-3.58,2.39-9.56,7.17-13.14,8.37-33.46,13.15-62.14,0-83.65-40.65,43-26.3,76.48-22.72,94.4,7.17a79.4,79.4,0,0,1,6,17.94c-25.1-15.54-52.58-22.72-70.51-20.33Z"/><path class="cls-2" d="M559.25,643.45c13.15-2.39,40.63-1.19,46.61,3.59-2.39,2.39-4.78,6-6,7.17-19.12,14.35-38.24,12-58.55-8.37,21.51-23.91,41.82-27.5,57.36-13.15,3.58,2.39,6,6,8.36,9.57-19.12-4.79-37-3.59-47.8,1.19Z"/><path class="cls-2" d="M488.75,660.19c7.17,16.74,31.07,47.82,41.82,51.41,1.2-3.59,3.59-10.76,3.59-14.35,2.39-33.47-16.73-53.8-57.36-62.17-11.95,45.43,0,72.93,31.07,80.11,4.78,1.19,10.75,1.19,16.73,1.19-20.32-17.93-33.46-40.65-35.85-56.19Z"/><path class="cls-2" d="M421.83,636.28c4.78,12,21.51,34.67,29.87,37.06,0-2.39,2.39-8.37,2.39-9.56,1.2-23.92-11.95-38.26-40.62-44.24C405.1,650.63,414.66,671,435,675.73c3.58,1.2,8.36,1.2,11.95,1.2-14.34-13.15-23.9-28.7-25.1-40.65Z"/><path class="cls-2" d="M341.77,783.33c6,13.16,26.29,39.46,34.65,41.85,1.2-2.39,3.59-8.37,3.59-10.76,1.19-27.5-14.34-45.43-47.8-51.41-9.56,37.06,1.19,59.78,25.09,65.76,4.78,1.19,10.76,1.19,15.54,1.19-17.93-14.35-28.68-33.47-31.07-46.63Z"/><path class="cls-2" d="M283.21,728.34c2.39,17.93,15.54,56.19,26.29,62.17,1.2-2.39,6-8.37,7.17-12,11.95-31.08-1.19-57.39-38.24-77.71-23.9,40.65-20.31,71.73,7.17,87.28,3.59,2.39,10.76,4.78,16.73,7.17-15.53-23.91-21.51-50.21-19.12-66.95Z"/><path class="cls-2" d="M247.36,675.73c-2.39,12-2.39,40.65,2.39,46.63,1.2-1.2,6-4.78,7.17-6,15.54-17.93,13.15-37.06-4.78-59.78-26.29,20.33-31.07,41.85-17.92,58.59,2.39,2.39,6,4.78,9.56,8.37-3.59-19.13-1.2-38.26,3.58-47.83Z"/><path class="cls-2" d="M193.59,627.91c0,17.93,8.36,55,17.92,63.36,1.2-3.58,6-8.36,8.37-11.95,14.34-28.69,6-55-27.49-78.91-28.68,35.87-28.68,67-3.58,84.89,3.58,3.58,9.56,6,15.53,8.37-12-23.92-15.53-50.22-10.75-65.76Z"/><path class="cls-2" d="M234.22,595.63c13.14,9.56,34.65,33.47,35.85,43-3.59,0-9.56,1.19-11.95,1.19-27.49-3.58-41.83-22.71-41.83-57.38,39.44-2.39,59.75,11.95,61,38.26,0,4.78-1.2,9.56-2.39,14.34-10.76-19.13-27.49-34.67-40.63-39.45Z"/><path class="cls-2" d="M192.39,819.2c15.54-2.39,50.19,0,57.36,6-2.39,2.39-6,7.17-8.36,9.56-23.9,16.74-47.8,12-72.9-13.15,27.49-29.89,53.78-33.47,74.09-15.54,2.39,3.59,6,8.37,8.37,13.15-22.71-7.17-45.41-6-58.56,0Z"/><path class="cls-2" d="M149.37,757c16.73-1.19,52.58,3.59,60.95,10.76-2.39,2.39-7.17,7.17-9.56,8.37-26.29,17.93-52.58,12-77.68-17.93,32.27-29.89,61-32.28,80.07-12,3.58,3.59,6,9.57,8.36,14.35-23.9-8.37-47.8-9.57-62.14-3.59Z"/><path class="cls-2" d="M136.23,694.86c14.34,2.39,44.21,14.35,49,21.52-2.39,1.2-7.17,4.78-9.56,6-25.09,8.37-45.41-2.39-60.94-31.09,32.26-17.93,56.16-15.54,68.11,7.18,2.39,2.39,3.59,8.37,4.78,13.15-17.92-12-38.24-17.93-51.38-16.74Z"/><path class="cls-2" d="M105.16,624.32c17.92,7.18,50.19,32.28,53.77,44.24-3.58,0-10.75,2.39-14.34,2.39-34.65,2.39-56.16-17.93-64.53-59.78,46.61-10.76,75.29,1.2,82.46,33.48,1.19,4.78,1.19,12,1.19,17.93-17.92-21.52-41.82-35.87-58.55-38.26Z"/><path class="cls-2" d="M143.4,541.83c9.56,16.74,22.7,55,19.12,66.95-3.59-2.39-10.76-3.59-13.15-6-29.87-16.74-37-45.43-20.31-84.88,45.41,15.54,62.14,43,50.19,72.93-1.2,4.78-6,10.76-8.37,15.54-3.58-27.5-15.53-52.61-27.48-64.56Z"/><path class="cls-2" d="M203.15,533.46c1.19,11.95,9.56,34.67,15.53,38.26,0-2.39,3.59-6,3.59-7.18,7.17-19.13,0-34.67-22.71-47.82-14.34,25.11-11.95,44.24,3.59,53.8l10.75,3.59c-8.36-14.35-13.14-29.89-10.75-40.65Z"/><path class="cls-2" d="M129.06,468.9c11.95,8.37,34.65,31.08,34.65,39.45-2.39,0-8.36,1.2-10.75,1.2-26.29-2.39-40.63-20.33-41.83-52.61,37.05-3.58,57.36,9.57,59.75,33.48,0,4.78-1.19,9.56-1.19,14.34-11.95-17.93-28.68-32.28-40.63-35.86Z"/><path class="cls-2" d="M255.73,857.46c9.56-1.2,31.07,0,35.85,3.59l-6,6c-14.34,10.76-28.68,8.37-44.21-8.36,16.73-17.94,33.46-20.33,45.41-9.57,1.19,2.39,3.58,6,4.78,8.37-13.15-4.78-27.49-3.59-35.85,0Z"/><path class="cls-2" d="M124.28,865.83c13.14,4.78,39.43,21.52,41.82,31.08-2.39,0-8.36,2.39-10.75,2.39-25.1,3.59-43-10.76-51.39-41.84,34.66-10.76,57.36-2.39,64.53,20.32,1.2,3.59,1.2,9.57,1.2,14.35-14.34-15.54-33.46-25.11-45.41-26.3Z"/><path class="cls-2" d="M233,985.39c7.17-12,29.88-34.68,38.24-35.87,0,2.39,1.2,8.37,1.2,10.76-1.2,26.3-19.12,40.65-51.39,43-3.58-37.06,8.37-57.39,33.46-59.78,3.59,0,8.37,1.2,13.15,1.2-17.93,12-31.07,27.49-34.66,40.65Z"/><path class="cls-2" d="M187.61,969.84c4.78-8.37,20.32-22.71,26.29-23.91,0,1.2,1.2,6,0,7.18-1.19,17.93-12,27.49-34.65,28.69-2.39-23.91,6-38.26,22.7-39.45,2.39-1.2,6,0,9.56,0-13.14,8.36-21.51,19.12-23.9,27.49Z"/><path class="cls-2" d="M127.86,973.43c7.17-12,28.68-33.48,38.24-34.67,0,2.39,1.2,8.37,1.2,10.76-2.39,25.11-19.12,39.45-51.39,41.84-3.58-35.86,8.37-56.19,32.27-58.58,3.58,0,9.56,0,14.34,1.2-17.93,10.76-31.07,27.49-34.66,39.45Z"/><path class="cls-2" d="M72.89,937.56c10.76-6,37.05-11.95,44.22-9.56-1.2,2.39-2.39,7.17-3.59,8.37-13.14,19.13-32.26,21.52-57.36,8.37,13.15-27.5,32.27-37.07,50.19-28.7,3.59,1.2,7.17,4.78,10.76,7.18-19.12,0-35.85,6-44.22,14.34Z"/><path class="cls-2" d="M44.21,870.61c16.73,1.2,51.39,13.15,56.17,21.52-2.39,2.39-7.17,6-10.76,7.17-27.48,10.76-51.38,0-70.5-32.28C55,844.31,83.65,846.7,98,870.61a82.65,82.65,0,0,1,6,15.54C82.45,873,58.55,868.22,44.21,870.61Z"/><path class="cls-2" d="M119.5,801.27c10.75,1.19,34.65,9.56,39.43,15.54-2.39,1.2-6,3.59-8.36,3.59-19.12,8.37-35.85,1.19-47.8-21.52,23.9-15.55,44.21-14.35,53.77,2.39q1.8,5.37,3.59,10.76c-14.34-8.37-29.88-13.15-40.63-10.76Z"/><path class="cls-2" d="M82.45,816.81c9.56,6,27.49,23.91,28.68,31.08-2.39,0-7.17,1.2-8.36,1.2-21.51-2.39-32.27-15.54-33.46-41.84,28.68-2.4,45.41,7.17,46.6,27.49,0,2.39,0,7.18-1.19,10.76-8.37-14.34-21.51-25.1-32.27-28.69Z"/><path class="cls-2" d="M34.65,758.23c19.12,1.19,61,15.54,68.12,25.1-3.59,2.4-9.56,7.18-13.15,8.37-33.46,14.35-62.14,1.2-84.84-37.06,43-27.5,76.48-25.11,94.4,3.59,2.39,4.78,4.78,11.95,7.17,17.93-26.29-15.54-53.77-21.52-71.7-17.93Z"/><path class="cls-2" d="M25.09,812c10.76,4.78,32.27,21.52,34.66,28.69a28,28,0,0,1-9.56,2.39c-22.71,1.2-37-12-41.83-40.65,31.07-6,50.19,2.39,53.78,22.72,1.19,3.59,1.19,8.37,1.19,12C51.38,822.79,35.85,813.22,25.09,812Z"/><path class="cls-2" d="M298.75,975.82c1.19-12,11.95-33.47,17.92-37.06,1.2,2.39,3.59,6,3.59,8.37,6,19.13-2.39,34.67-26.29,44.23-13.15-25.1-8.37-44.23,8.36-51.41,2.39-2.39,7.17-2.39,10.76-3.58-10.76,13.15-15.54,28.69-14.34,39.45Z"/><path class="cls-2" d="M352.52,957.89c1.2-9.57,10.76-28.7,15.54-31.09,1.19,1.2,3.58,4.79,3.58,6,4.78,17.93-2.39,29.89-22.7,39.45-10.76-22.71-8.37-38.25,7.17-45.43a22.22,22.22,0,0,1,8.36-2.39c-8.36,10.76-13.14,25.11-12,33.48Z"/><path class="cls-2" d="M689.51,311.08c-17.93,9.57-49,39.46-50.19,52.61,3.58,0,10.75,1.19,14.34,1.19,37-1.19,57.36-25.1,60.94-70.54-51.38-6-80.06,10.76-83.65,44.24,0,6,0,13.15,1.2,19.13,16.73-23.91,39.43-41.85,57.36-46.63Z"/><path class="cls-2" d="M743.28,72c-11.95,10.76-31.07,38.26-29.87,47.82h12c27.48-7.17,39.43-28.69,34.65-63.37-39.43,2.4-58.55,20.33-56.16,46.63a36,36,0,0,0,3.58,14.35c8.37-21.52,23.9-39.46,35.85-45.43Z"/><path class="cls-2" d="M712.21,231c-17.92,9.56-50.19,40.65-52.58,53.8,3.59,0,12,2.39,15.54,2.39,38.24-2.39,58.55-26.3,63.33-74.13-52.58-6-82.45,12-87.23,46.63,0,6,1.19,13.15,1.19,20.33,17.93-26.31,41.83-45.43,59.75-49Z"/><path class="cls-2" d="M675.17,394.77c-11.95,7.18-33.46,27.5-34.66,37.06,2.39,0,7.17,1.2,9.56,1.2,26.29-2.39,39.44-17.93,43-50.21-35.85-3.59-56.16,8.37-58.55,31.08,0,3.59,0,9.57,1.19,13.15,10.76-16.74,27.49-28.69,39.44-32.28Z"/><path class="cls-2" d="M571.2,248.91c9.56,0,29.88,8.37,33.46,13.15-2.39,1.2-4.78,3.59-7.17,3.59-16.73,7.17-31.07,0-41.82-19.13,22.7-13.15,38.24-12,46.6,2.39,2.39,2.39,2.39,6,3.59,9.57-12-8.37-26.29-12-34.66-9.57Z"/><path class="cls-2" d="M510.26,403.14c17.92,4.78,55,25.11,59.75,35.87-3.59,1.19-10.76,4.78-14.34,4.78-33.46,7.17-58.56-8.37-72.9-50.21,45.41-17.94,76.48-9.57,88.43,20.32,1.2,4.78,2.39,12,3.59,17.93-21.51-17.93-47.8-28.69-64.53-28.69Z"/><path class="cls-2" d="M436.17,344.56c-4.78,14.34-7.17,46.63-1.19,53.8,1.19-1.2,7.16-4.78,8.36-6,19.12-19.13,19.12-41.84-1.2-69.34-31.06,21.52-38.23,45.43-23.89,65.75,2.39,3.59,6,7.18,9.56,10.76-2.39-22.71,1.19-43,8.36-55Z"/><path class="cls-2" d="M455.29,557.37c11.95-9.56,40.63-22.72,49-20.32,0,2.39-1.19,8.36-2.39,9.56-10.75,25.11-32.26,32.28-63.33,22.72,8.37-35.87,27.48-51.41,51.38-44.24a117.1,117.1,0,0,1,13.15,6c-21.51,4.78-39.44,15.54-47.8,26.3Z"/><path class="cls-2" d="M65.72,478.46c10.76,7.18,29.88,27.5,31.07,35.87-2.39,0-7.17,1.2-9.56,0-23.9-1.2-37-17.93-38.24-46.63,33.46-3.58,51.39,8.37,53.78,29.89,0,3.59-1.2,8.37-1.2,13.15C90.82,494,76.48,482.05,65.72,478.46Z"/><path class="cls-2" d="M126.67,341c13.14,3.59,39.43,17.93,43,25.11l-9.56,4.78c-25.1,4.78-43-7.17-52.58-37.06,32.26-13.15,55-7.18,63.33,15.54a42.87,42.87,0,0,1,2.39,13.15C157.74,348.14,139.81,341,126.67,341Z"/><path class="cls-2" d="M76.48,416.29c9.56,7.18,23.9,27.5,23.9,35.87C98,451,93.21,451,92,451c-21.51-4.78-29.87-20.32-27.48-46.62,28.68,1.19,44.21,14.34,43,33.47a42.35,42.35,0,0,0-2.39,12C98,433,86,421.07,76.48,416.29Z"/><path class="cls-2" d="M26.29,590.85c9.56,6,27.48,23.91,27.48,29.89-1.19,1.19-6,1.19-8.36,1.19C25.09,620.74,14.34,607.58,12,582.48c28.68-3.59,44.21,6,46.6,25.1v10.76C49,604,35.85,594.43,26.29,590.85Z"/><path class="cls-2" d="M16.73,706.82c10.75,2.39,33.46,11.95,37,17.93-2.39,1.2-6,3.59-7.17,3.59q-30.47,9-46.6-25.11c25.09-13.15,44.21-9.56,52.58,7.17,1.19,2.39,2.39,7.18,3.58,9.57C43,710.4,26.29,705.62,16.73,706.82Z"/><path class="cls-2" d="M372.84,119.79c3.58,12,6,37.06,1.19,44.24-1.19-1.2-6-3.59-7.17-6-15.53-15.54-15.53-33.48,1.2-55,25.09,16.74,31.07,35.87,19.12,52.61-1.2,2.39-4.78,6-8.37,8.37,2.39-17.94,0-34.68-6-44.24Z"/><path class="cls-2" d="M622.59,23c-4.78,15.54-7.17,50.21-1.2,59.78,2.39-2.39,8.37-6,9.56-7.18C652.46,54,651.27,28.93,628.56.23c-33.46,23.91-41.82,49-25.09,71.74,2.39,3.58,7.17,7.17,10.75,10.76-3.58-23.91,0-46.63,8.37-59.78Z"/><path class="cls-2" d="M550.89,31.32c9.56,2.39,28.68,12,31.07,17.93-1.2,1.2-4.78,2.39-7.17,2.39-16.73,4.78-29.88-4.78-37-25.11,22.71-9.56,39.44-6,45.41,9.57a29.6,29.6,0,0,1,1.2,9.56c-10.76-9.56-23.9-15.54-33.46-14.34Z"/><path class="cls-2" d="M689.51,14.58c15.53,4.78,44.21,22.72,47.8,31.08-3.59,1.2-8.37,3.59-11.95,3.59q-41.24,7.17-57.36-43c37-13.15,62.14-4.78,70.5,19.13a69.69,69.69,0,0,1,2.39,15.54c-16.73-15.54-37-26.3-51.38-26.3Z"/><path class="cls-2" d="M727.75,349.34c-6,13.15-12,43-7.17,50.21,1.19-1.19,7.17-3.58,8.36-4.78,20.32-15.54,22.71-37.06,6-64.56-31.07,16.74-40.63,38.26-28.68,58.58,1.19,3.59,4.78,7.18,8.36,10.76-1.19-20.32,4.78-40.65,13.15-50.21Z"/><path class="cls-2" d="M782.72,447.38c11.95,7.17,35.85,31.08,38.24,39.45a52.37,52.37,0,0,1-12,2.39c-27.49-2.39-43-20.32-45.41-53.8,38.24-4.78,59.75,7.18,62.14,33.48,1.19,3.58,0,9.56,0,14.34-13.15-19.12-29.88-32.28-43-35.86Z"/><path class="cls-2" d="M411.08,815.61c6,12,22.7,34.68,31.06,37.07a28.08,28.08,0,0,1,2.4-9.57c1.19-23.91-13.15-39.45-41.83-45.43-8.36,32.28,1.2,52.61,22.71,57.39,3.58,1.19,8.36,1.19,11.95,1.19-14.34-13.15-23.9-28.69-26.29-40.65Z"/><path class="cls-2" d="M1068.32,815.61c-4.78,12-22.71,34.68-29.88,37.07a28.29,28.29,0,0,1-2.39-9.57c-2.39-23.91,12-39.45,40.63-45.43,8.37,32.28,0,52.61-21.51,57.39-3.58,1.19-9.56,1.19-13.14,1.19,14.34-13.15,25.09-28.69,26.29-40.65Z"/><path class="cls-3" d="M487.1,1517.64c-.61,0-1.85,0-3.09-.11-13.08-.62-16.89-3.4-20-7.72-4.12-5.67-7.1-12-10.61-18.13-1.54-2.78-3-3.4-6.28-3.4l-2.06-.1v15c0,8.34,1,9.06,8.76,10V1517H422.32v-3.81c7.83-.83,8.75-1.65,8.75-10v-39.45c0-8.14-1-9.27-8.75-9.89v-3.81h29.87c9.17,0,14.42,1,18.64,3.91s6.9,7.32,6.9,13.7c0,9.17-6.07,14-12.87,16.69,1.54,3.09,5.56,9.78,8.65,14.52a82.29,82.29,0,0,0,7.83,10.71c2.37,2.68,3.5,3.5,6.49,4.53ZM447.86,1484c4.43,0,7.83-.73,10.1-2.68,3.4-2.89,4.84-6.8,4.84-12,0-10.92-6.29-14.84-12.05-14.84-2.78,0-4.12.42-4.74,1s-.93,1.85-.93,3.91V1484Z"/><path class="cls-3" d="M548,1499.51c-.52,2.78-3.4,14.62-4.33,17.51H490.2v-3.71c9.37-.93,10-1.44,10-10.09v-39.35c0-8.75-1.24-9.37-8.24-10v-3.81h33.47c10.81,0,14.42-.1,15.86-.21.1,1.86.62,10.3,1,16.69l-4,.51c-.92-3.5-2.67-7.72-4.42-9.58-1.86-2-3.2-2.67-8.45-2.67h-6.69c-3.92,0-4.33.2-4.33,3.71V1480h10.09c5.77,0,6.8-1.54,8.35-8.86h4v23h-4c-1.65-7.62-2.48-8.86-8.45-8.86h-10V1503c0,7.11.21,9.27,6.59,9.37h7.31c5.77,0,7.32-.72,9.58-3.5a46,46,0,0,0,6.29-10.3Z"/><path class="cls-3" d="M592.88,1517v-3.81c6.49-.93,6.49-2.06,5-6.49-1-3.09-2.68-7.73-4.22-11.85H573.62c-1.13,3.2-2.57,7.11-3.6,10.3-2.16,6.49.31,7.31,8.44,8V1517H553v-3.81c6.49-.83,8.14-1.75,11.64-10.41l21.43-53.25,4.94-.92c6.59,17.92,13.6,36.25,20.29,53.45,3.81,9.58,4.74,10.3,11.43,11.13V1517Zm-9.06-49.24c-3,7.42-5.87,14.32-8.45,21.84h16.38Z"/><path class="cls-3" d="M689.6,1499.3a144.76,144.76,0,0,1-5.77,16.58c-2.68.62-11.12,2.68-19,2.68-27.71,0-39.14-17.82-39.14-34.19,0-21.32,16.27-35.74,41-35.74,9,0,16.89,2.16,19.47,2.47.51,4.84,1.24,12.46,2,17l-4.12.72c-2.17-8-5.26-11.84-10.72-14a25.91,25.91,0,0,0-9-1.45c-14.93,0-22.45,12.47-22.45,28.64,0,18.85,9.68,31.62,23.79,31.62,8.66,0,14.42-4.53,20-15.86Z"/><path class="cls-3" d="M755.41,1467.89a31.84,31.84,0,0,0-4.42-10.1c-1.86-2.16-2.68-3-8.76-3h-6.59v48.41c0,8.65,1,9.26,10.2,10V1517h-34.2v-3.81c8.76-.73,9.68-1.34,9.68-10v-48.41H715c-5.77,0-7.42.92-9.37,3.4-1.45,2-2.89,5.66-4.23,9.78h-3.91c.72-7.52,1.44-15.55,1.65-20.5h3.09c1.54,2.37,2.78,2.58,5.87,2.58h41.2a6.8,6.8,0,0,0,6-2.58h3c.1,4.33.51,13.39,1,20.09Z"/><path class="cls-3" d="M827.31,1467.06c-2.06-6.59-4.95-14.11-14.42-14.11-6,0-9.89,4.23-9.89,10s3.81,9.07,12.87,13.6c11,5.46,18,10.81,18,21,0,12.15-10.1,21-24.82,21-6.6,0-12.47-1.75-17.31-3.19-.61-2.37-2.37-13.08-3.09-17.92l4-.93c2.06,6.49,7.83,17.72,17.92,17.72,6.28,0,10.09-3.92,10.09-10.51,0-6-3.7-9.48-12.35-14.11-10.72-5.77-17.72-10.92-17.72-21.63s8.45-19.36,23.89-19.36c7.11,0,12.47,1.54,14.73,1.85.42,3.81,1.14,9.17,2,15.66Z"/><path class="cls-3" d="M916,1453.88c-8,.82-8.76,1.44-8.76,10v39.45c0,8.55.83,9.16,8.76,9.89V1517H884.16v-3.81c8.14-1,8.76-1.34,8.76-9.89V1484H865.11v19.36c0,8.55.92,9.06,8.65,9.89V1517H842v-3.81c7.62-.83,8.75-1.34,8.75-9.89v-39.45c0-8.55-.93-9.37-8.75-10v-3.81h31.72v3.81c-7.83.72-8.65,1.44-8.65,10v14.73h27.81v-14.73c0-8.55-1-9.17-8.76-10v-3.81H916Z"/><path class="cls-3" d="M961,1448.63c19,0,34.6,13.9,34.6,34.19,0,21.94-15.65,35.74-35.12,35.74-20.6,0-35.53-15-35.53-34.91C925,1466,937.51,1448.63,961,1448.63Zm-1.55,4.53c-10.5,0-18.23,10.3-18.23,28.53,0,17.41,6.9,32.34,20.81,32.34,9.78,0,17.4-9.48,17.4-28.32C979.43,1465.31,971.4,1453.16,959.45,1453.16Z"/><path class="cls-3" d="M1033.82,1450.07c8.13,0,14.31,1.44,18.54,4.22,5.15,3.4,8,8.34,8,15.45,0,14.94-12.67,21.22-23.69,21.32a26.55,26.55,0,0,1-3.09-.2l-6-1.55v14c0,8.65.72,9.06,9.68,9.89V1517h-32.75v-3.81c7.72-.93,8.75-1.24,8.75-9.89V1464c0-8.65-1-9.58-8.75-10.09v-3.81Zm-6.18,34.91a13.11,13.11,0,0,0,5.46,1c4.73,0,12.46-2.79,12.46-16.38,0-11.54-6.28-15.35-13-15.35a6.34,6.34,0,0,0-4,1c-.72.62-.92,1.65-.92,3.2Z"/></g></g></svg>